<svg width="20" height="20" viewBox="0 0 20 20" fill="none" xmlns="http://www.w3.org/2000/svg">
    <path d="M7 6C6.44772 6 6 6.44772 6 7C6 7.55228 6.44772 8 7 8H13C13.5523 8 14 7.55228 14 7C14 6.44772 13.5523 6 13 6H7Z" fill="black"/>
    <path d="M6 11C6 10.4477 6.44772 10 7 10H13C13.5523 10 14 10.4477 14 11C14 11.5523 13.5523 12 13 12H7C6.44772 12 6 11.5523 6 11Z" fill="black"/>
    <path d="M7 14C6.44772 14 6 14.4477 6 15C6 15.5523 6.44772 16 7 16H13C13.5523 16 14 15.5523 14 15C14 14.4477 13.5523 14 13 14H7Z" fill="black"/>
    <path fill-rule="evenodd" clip-rule="evenodd" d="M3 0C2.44772 0 2 0.447715 2 1V19C2 19.5523 2.44772 20 3 20H17C17.5523 20 18 19.5523 18 19V5C18 4.73478 17.8946 4.48043 17.7071 4.29289L13.7071 0.292893C13.5196 0.105357 13.2652 0 13 0H3ZM4 18V2H12.5858L16 5.41421V18H4Z" fill="black"/>
</svg>
