<svg width="20" height="20" viewBox="0 0 20 20" fill="currentColor" xmlns="http://www.w3.org/2000/svg">
    <path fill-rule="evenodd" clip-rule="evenodd" d="M10.7071 0.292893C10.3166 -0.0976311 9.68345 -0.0976311 9.29292 0.292893L1.29292 8.29289C1.00692 8.57889 0.921369 9.00901 1.07615 9.38268C1.23093 9.75636 1.59557 10 2.00003 10H3V19C3 19.5523 3.44772 20 4 20H16C16.5523 20 17 19.5523 17 19V10H18C18.4045 10 18.7691 9.75636 18.9239 9.38268C19.0787 9.00901 18.9931 8.57889 18.7071 8.29289L10.7071 0.292893ZM15 10H5V18H15V10ZM15.5858 8L10 2.41421L4.41424 8H15.5858Z" />
</svg>
