<svg width="20" height="20" viewBox="0 0 20 20" fill="currentColor" xmlns="http://www.w3.org/2000/svg">
    <g clip-path="url(#clip0)">
        <path fill-rule="evenodd" clip-rule="evenodd" d="M14.7071 3.33558C14.3166 2.94506 13.6834 2.94506 13.2929 3.33558L4.80761 11.8209C3.63604 12.9924 3.63604 14.8919 4.80761 16.0635C5.97918 17.2351 7.87868 17.2351 9.05025 16.0635L16.1213 8.99244C16.5118 8.60191 17.145 8.60191 17.5355 8.99244C17.9261 9.38296 17.9261 10.0161 17.5355 10.4067L10.4645 17.4777C8.51185 19.4303 5.34602 19.4303 3.3934 17.4777C1.44078 15.5251 1.44078 12.3593 3.3934 10.4067L11.8787 1.92137C13.0503 0.749796 14.9497 0.749796 16.1213 1.92137C17.2929 3.09294 17.2929 4.99244 16.1213 6.16401L8.34315 13.9422C7.95262 14.3327 7.31946 14.3327 6.92893 13.9422C6.53841 13.5517 6.53841 12.9185 6.92893 12.528L14.7071 4.7498C15.0976 4.35927 15.0976 3.72611 14.7071 3.33558Z" />
    </g>
    <defs>
        <clipPath id="clip0">
            <rect width="20" height="20" fill="white"/>
        </clipPath>
    </defs>
</svg>
