<svg width="20" height="20" viewBox="0 0 20 20" fill="currentColor" xmlns="http://www.w3.org/2000/svg">
    <path d="M7 4.22222C7 3.4455 7.54421 3 8 3C8.45579 3 9 3.4455 9 4.22222V12C9 12.5523 9.44772 13 10 13C10.5523 13 11 12.5523 11 12V4.22222C11 2.54435 9.75335 1 8 1C6.24665 1 5 2.54435 5 4.22222C5 4.26935 5.00326 4.31572 5.00957 4.36111C5.00326 4.4065 5 4.45287 5 4.5V14C5 16.7614 7.23858 19 10 19C12.7614 19 15 16.7614 15 14V3C15 2.44772 14.5523 2 14 2C13.4477 2 13 2.44772 13 3V14C13 15.6569 11.6569 17 10 17C8.34315 17 7 15.6569 7 14V4.5C7 4.45287 6.99674 4.4065 6.99043 4.36111C6.99674 4.31572 7 4.26935 7 4.22222Z" />
</svg>
