<svg width="20" height="20" viewBox="0 0 20 20" fill="currentColor" xmlns="http://www.w3.org/2000/svg">
    <path d="M0 1C0 0.447715 0.447715 0 1 0H2.38317C3.79778 0 5.02017 0.9882 5.31658 2.37141L6.95127 10H15.8832C16.3547 10 16.7622 9.6706 16.861 9.20953L17.763 5H8C7.44772 5 7 4.55228 7 4C7 3.44772 7.44772 3 8 3H17.763C19.0363 3 19.9854 4.17404 19.7186 5.41906L18.8166 9.62859C18.5202 11.0118 17.2978 12 15.8832 12H7.37984L7.63903 13.2095C7.73783 13.6706 8.14529 14 8.61683 14H17C17.5523 14 18 14.4477 18 15C18 15.5523 17.5523 16 17 16H8.61683C7.20222 16 5.97983 15.0118 5.68342 13.6286L3.36097 2.79047C3.26217 2.3294 2.85471 2 2.38317 2H1C0.447715 2 0 1.55228 0 1Z" />
    <path d="M10 18.5C10 19.3284 9.32843 20 8.5 20C7.67157 20 7 19.3284 7 18.5C7 17.6716 7.67157 17 8.5 17C9.32843 17 10 17.6716 10 18.5Z" />
    <path d="M15.5 20C16.3284 20 17 19.3284 17 18.5C17 17.6716 16.3284 17 15.5 17C14.6716 17 14 17.6716 14 18.5C14 19.3284 14.6716 20 15.5 20Z" />
</svg>
