<svg width="20" height="20" viewBox="0 0 20 20" fill="none" xmlns="http://www.w3.org/2000/svg">
    <path d="M5 14C5 14.5523 5.44772 15 6 15H10C10.5523 15 11 14.5523 11 14C11 13.4477 10.5523 13 10 13H6C5.44772 13 5 13.4477 5 14Z" fill="black"/>
    <path d="M6 11C5.44772 11 5 10.5523 5 10C5 9.44771 5.44772 9 6 9H14C14.5523 9 15 9.44771 15 10C15 10.5523 14.5523 11 14 11H6Z" fill="black"/>
    <path d="M5 6C5 6.55228 5.44772 7 6 7H14C14.5523 7 15 6.55228 15 6C15 5.44772 14.5523 5 14 5H6C5.44772 5 5 5.44772 5 6Z" fill="black"/>
    <path fill-rule="evenodd" clip-rule="evenodd" d="M0 18C0 19.1046 0.89543 20 2 20H14.5858C15.1162 20 15.6249 19.7893 16 19.4142L19.4142 16C19.7893 15.6249 20 15.1162 20 14.5858V2C20 0.89543 19.1046 0 18 0H2C0.89543 0 0 0.89543 0 2V18ZM2 2H18V13H15C13.8954 13 13 13.8954 13 15V18H2V2ZM15 15H17.5858L15 17.5858V15Z" fill="black"/>
</svg>
