<svg width="20" height="20" viewBox="0 0 20 20" fill="currentColor" xmlns="http://www.w3.org/2000/svg">
    <path d="M5 8C4.44772 8 4 8.44771 4 9V10C4 10.5523 4.44772 11 5 11H6C6.55228 11 7 10.5523 7 10V9C7 8.44772 6.55228 8 6 8H5Z" />
    <path d="M4 14C4 13.4477 4.44772 13 5 13H6C6.55228 13 7 13.4477 7 14V15C7 15.5523 6.55228 16 6 16H5C4.44772 16 4 15.5523 4 15V14Z" />
    <path d="M9.5 8C8.94772 8 8.5 8.44771 8.5 9V10C8.5 10.5523 8.94771 11 9.5 11H10.5C11.0523 11 11.5 10.5523 11.5 10V9C11.5 8.44772 11.0523 8 10.5 8H9.5Z" />
    <path d="M8.5 14C8.5 13.4477 8.94772 13 9.5 13H10.5C11.0523 13 11.5 13.4477 11.5 14V15C11.5 15.5523 11.0523 16 10.5 16H9.5C8.94771 16 8.5 15.5523 8.5 15V14Z" />
    <path d="M14 8C13.4477 8 13 8.44771 13 9V10C13 10.5523 13.4477 11 14 11H15C15.5523 11 16 10.5523 16 10V9C16 8.44772 15.5523 8 15 8H14Z" />
    <path fill-rule="evenodd" clip-rule="evenodd" d="M16 1C16 0.447715 15.5523 0 15 0C14.4477 0 14 0.447715 14 1V2H6V1C6 0.447715 5.55228 0 5 0C4.44772 0 4 0.447715 4 1V2H3C1.34315 2 0 3.34315 0 5V17C0 18.6569 1.34315 20 3 20H17C18.6569 20 20 18.6569 20 17V5C20 3.34315 18.6569 2 17 2H16V1ZM4 5V4H3C2.44772 4 2 4.44772 2 5V17C2 17.5523 2.44772 18 3 18H17C17.5523 18 18 17.5523 18 17V5C18 4.44772 17.5523 4 17 4H16V5C16 5.55228 15.5523 6 15 6C14.4477 6 14 5.55228 14 5V4H6V5C6 5.55228 5.55228 6 5 6C4.44772 6 4 5.55228 4 5Z" />
</svg>
