<svg width="20" height="20" viewBox="0 0 20 20" fill="none" xmlns="http://www.w3.org/2000/svg">
    <path d="M6.7992 12.3995C6.46751 11.9579 5.84064 11.8688 5.39905 12.2005C4.95747 12.5322 4.86837 13.159 5.20006 13.6006C6.29302 15.0557 8.03637 16.0001 10 16.0001C11.9636 16.0001 13.707 15.0557 14.7999 13.6006C15.1316 13.159 15.0425 12.5322 14.6009 12.2005C14.1594 11.8688 13.5325 11.9579 13.2008 12.3995C12.4693 13.3733 11.308 14.0001 10 14.0001C8.69199 14.0001 7.53066 13.3733 6.7992 12.3995Z" fill="black"/>
    <path d="M8 8C8 8.55229 7.55228 9 7 9C6.44772 9 6 8.55229 6 8C6 7.44772 6.44772 7 7 7C7.55228 7 8 7.44772 8 8Z" fill="black"/>
    <path d="M13 9C13.5523 9 14 8.55229 14 8C14 7.44772 13.5523 7 13 7C12.4477 7 12 7.44772 12 8C12 8.55229 12.4477 9 13 9Z" fill="black"/>
    <path fill-rule="evenodd" clip-rule="evenodd" d="M10 0C4.47715 0 0 4.47715 0 10C0 15.5228 4.47715 20 10 20C15.5228 20 20 15.5228 20 10C20 4.47715 15.5228 0 10 0ZM2 10C2 5.58172 5.58172 2 10 2C14.4183 2 18 5.58172 18 10C18 14.4183 14.4183 18 10 18C5.58172 18 2 14.4183 2 10Z" fill="black"/>
</svg>
