<svg width="20" height="20" viewBox="0 0 20 20" fill="currentColor" xmlns="http://www.w3.org/2000/svg">
    <path fill-rule="evenodd" clip-rule="evenodd" d="M10 2C5.58144 2 2 5.58144 2 10C2 14.4186 5.58144 18 10 18H18V10C18 5.58144 14.4186 2 10 2ZM0 10C0 4.47687 4.47687 0 10 0C15.5231 0 20 4.47687 20 10V19C20 19.5523 19.5523 20 19 20H10C4.47687 20 0 15.5231 0 10Z" />
    <path fill-rule="evenodd" clip-rule="evenodd" d="M14 10C14 12.2096 12.2096 14 10 14C7.7904 14 6 12.2096 6 10C6 7.7904 7.7904 6 10 6C12.2096 6 14 7.7904 14 10Z" />
</svg>
