<svg width="20" height="20" viewBox="0 0 20 20" fill="currentColor" xmlns="http://www.w3.org/2000/svg">
    <path fill-rule="evenodd" clip-rule="evenodd" d="M20 10C20 15.5228 15.5228 20 10 20C4.47715 20 0 15.5228 0 10C0 4.47715 4.47715 0 10 0C15.5228 0 20 4.47715 20 10ZM18 10C18 14.4183 14.4183 18 10 18C8.85829 18 7.77243 17.7608 6.78981 17.3299C6.89052 17.1804 7.0092 17.0095 7.1457 16.8211C7.67423 16.0915 8.4653 15.1064 9.50924 14.0923C11.4921 12.1661 14.3364 10.183 17.9893 9.58166C17.9964 9.7202 18 9.85968 18 10ZM17.6377 7.61258C13.4609 8.30706 10.2693 10.5656 8.11567 12.6577C6.97211 13.7686 6.10693 14.8459 5.52608 15.6477C5.34815 15.8933 5.19647 16.1136 5.07124 16.3018C4.7432 16.0449 4.43573 15.7629 4.15171 15.4588C6.63521 10.9722 12.0431 7.2183 17.1414 6.48998C17.1568 6.48778 17.172 6.48524 17.1871 6.48237C17.3647 6.84456 17.5158 7.22214 17.6377 7.61258ZM15.9336 4.63406C10.4777 5.31659 6.65506 4.91897 4.34053 4.34577C5.78845 2.89651 7.78953 2 10 2C12.3536 2 14.4697 3.01633 15.9336 4.63406ZM2.95867 6.19942C2.34717 7.32997 2 8.62444 2 10C2 11.2463 2.28498 12.426 2.79332 13.4775L5.25872 7.84231L2.95867 6.19942Z" />
</svg>
