<svg width="20" height="20" viewBox="0 0 20 20" fill="currentColor" xmlns="http://www.w3.org/2000/svg">
    <path d="M10 6C10.5523 6 11 5.55228 11 5C11 4.44772 10.5523 4 10 4C9.44771 4 9 4.44772 9 5C9 5.55228 9.44771 6 10 6Z" />
    <path fill-rule="evenodd" clip-rule="evenodd" d="M10 13L10.6879 13.7258C10.3021 14.0914 9.69742 14.091 9.31168 13.7254L9.30981 13.7236L9.30605 13.72L9.29424 13.7087C9.2845 13.6993 9.27104 13.6862 9.25414 13.6696C9.22032 13.6364 9.17264 13.5889 9.11307 13.528C8.99399 13.4062 8.82703 13.2303 8.62815 13.0069C8.2313 12.5612 7.70254 11.9211 7.17249 11.1399C6.12971 9.60297 5 7.40054 5 5C5 2.23858 7.23858 0 10 0C12.7614 0 15 2.23858 15 5C15 7.40054 13.8703 9.60297 12.8275 11.1399C12.2975 11.9211 11.7687 12.5612 11.3719 13.0069C11.173 13.2303 11.006 13.4062 10.8869 13.528C10.8274 13.5889 10.7797 13.6364 10.7459 13.6696C10.729 13.6862 10.7155 13.6993 10.7058 13.7087L10.694 13.72L10.6902 13.7236L10.6888 13.7249C10.6886 13.7251 10.6879 13.7258 10 13ZM10 2C8.34315 2 7 3.34315 7 5C7 6.8086 7.87029 8.60617 8.82751 10.017C9.24527 10.6327 9.66406 11.1521 10 11.5384C10.3359 11.1521 10.7547 10.6327 11.1725 10.017C12.1297 8.60617 13 6.8086 13 5C13 3.34315 11.6569 2 10 2ZM9.31168 13.7254C9.31191 13.7256 9.31212 13.7258 10 13L9.31168 13.7254Z" />
    <path d="M6.98656 13.1484C7.07681 13.6933 6.70829 14.2081 6.16343 14.2984C4.74053 14.5341 3.60515 14.8877 2.85486 15.283C2.47923 15.4809 2.2444 15.6663 2.11437 15.8137C2.05196 15.8844 2.02316 15.9357 2.01054 15.9648C2.00438 15.9789 2.00195 15.9881 2.00098 15.9926C2.00005 15.9969 2 15.999 2 16C2 16.0009 1.99998 16.0052 2.00305 16.0153C2.00645 16.0264 2.01483 16.0485 2.03507 16.0814C2.07752 16.1506 2.16408 16.2545 2.32624 16.3823C2.65642 16.6425 3.19616 16.9206 3.95227 17.1726C5.45402 17.6732 7.59229 18 10 18C12.4077 18 14.546 17.6732 16.0477 17.1726C16.8038 16.9206 17.3436 16.6425 17.6738 16.3823C17.8359 16.2545 17.9225 16.1506 17.9649 16.0814C17.9852 16.0485 17.9935 16.0264 17.9969 16.0153C18 16.0052 18 16.001 18 16.0001L17.9999 15.9981C17.9998 15.9968 17.9996 15.995 17.999 15.9926C17.998 15.9881 17.9956 15.9789 17.9895 15.9648C17.9768 15.9357 17.948 15.8844 17.8856 15.8137C17.7556 15.6663 17.5208 15.4809 17.1451 15.283C16.3948 14.8877 15.2595 14.5341 13.8366 14.2984C13.2917 14.2081 12.9232 13.6933 13.0134 13.1484C13.1037 12.6036 13.6186 12.235 14.1634 12.3253C15.704 12.5805 17.0686 12.982 18.0774 13.5136C19.0018 14.0006 20 14.8028 20 16C20 16.852 19.4811 17.5044 18.9117 17.9532C18.331 18.4108 17.5528 18.7792 16.6802 19.07C14.9246 19.6552 12.5629 20 10 20C7.43715 20 5.07541 19.6552 3.31981 19.07C2.44724 18.7792 1.66896 18.4108 1.08829 17.9532C0.518893 17.5044 0 16.852 0 16C0 14.8028 0.998238 14.0006 1.92257 13.5136C2.93141 12.982 4.29604 12.5805 5.83657 12.3253C6.38143 12.235 6.8963 12.6036 6.98656 13.1484Z" />
</svg>
