<svg width="20" height="20" viewBox="0 0 20 20" fill="currentColor" xmlns="http://www.w3.org/2000/svg">
    <path fill-rule="evenodd" clip-rule="evenodd" d="M8 4C8 3.44772 8.44772 3 9 3H14C14.3788 3 14.725 3.214 14.8944 3.55279L17.7454 9.25464L19.4472 10.1056C19.786 10.275 20 10.6212 20 11V15C20 15.3788 19.786 15.725 19.4472 15.8944L17.9286 16.6538C17.6302 17.9962 16.4323 19 15 19C13.6938 19 12.5825 18.1652 12.1707 17H7.82929C7.41746 18.1652 6.30622 19 5 19C3.69378 19 2.58254 18.1652 2.17071 17H1C0.447715 17 0 16.5523 0 16V6C0 5.44772 0.447715 5 1 5H8V4ZM14 16C14 16.5523 14.4477 17 15 17C15.5472 17 15.9917 16.5605 15.9999 16.0153C15.9997 16.0053 15.9997 15.9954 15.9999 15.9855C15.9922 15.4399 15.5474 15 15 15C14.4477 15 14 15.4477 14 16ZM17.6349 14.5645C17.126 13.6324 16.1368 13 15 13C13.6938 13 12.5825 13.8348 12.1707 15H7.82929C7.41746 13.8348 6.30622 13 5 13C3.69378 13 2.58254 13.8348 2.17071 15H2V11H16.7639L18 11.618V14.382L17.6349 14.5645ZM5 15C5.55228 15 6 15.4477 6 16C6 16.5523 5.55228 17 5 17C4.44772 17 4 16.5523 4 16C4 15.4477 4.44772 15 5 15ZM8 7H2V9H8V7ZM10 9H15.382L13.382 5H10V9Z" />
</svg>
