<svg width="20" height="20" viewBox="0 0 20 20" fill="currentColor" xmlns="http://www.w3.org/2000/svg">
    <path d="M14.325 3.66496L16.2757 2.22656C14.5615 0.847275 12.3743 0 9.9901 0V0.0195498C7.41896 0.0244926 5.07143 1.0051 3.29897 2.6099L3.29059 2.60067C1.26906 4.42593 0.00994743 7.05271 5.86787e-05 9.97473C1.99505e-05 9.97979 0 9.98483 0 9.98985C0 9.9931 1.56159e-06 9.99636 4.68404e-06 9.99961C1.56157e-06 10.0029 0 10.0061 0 10.0094C0.00494898 12.5807 0.98568 14.9283 2.59064 16.7008L2.58114 16.7094C4.41363 18.7389 7.05398 20 9.9899 20C12.5662 19.995 14.918 19.0101 16.6917 17.3995L16.7091 17.4187C18.7189 15.6059 19.9997 12.9458 19.9997 10.0099C19.9997 9.3991 19.9406 8.80797 19.8421 8.21685L17.6943 9.81288V10.0099C17.6943 12.14 16.8238 14.0611 15.4263 15.4459L15.4087 15.4283C14.0294 16.847 12.1181 17.6942 9.99003 17.6942C9.94824 17.6942 9.90827 17.6942 9.869 17.6937L9.84534 17.6933C9.76342 17.6916 9.68367 17.6871 9.59594 17.6745L9.59543 17.6846C7.62802 17.5847 5.86129 16.7414 4.56334 15.4362L4.57136 15.4282C3.17237 14.0489 2.30538 12.1376 2.30538 10.0096C2.30538 10.0096 2.30538 10.0095 2.30538 10.0096C2.30538 9.94218 2.30627 9.87484 2.30803 9.80784C2.31055 9.74536 2.31548 9.68276 2.32509 9.61547L2.31553 9.61499C2.4162 7.6623 3.25925 5.88246 4.56366 4.58324L4.5713 4.59088C5.95059 3.19189 7.88159 2.32491 9.98993 2.32491C10.1279 2.32491 10.2461 2.32491 10.384 2.34461L10.3853 2.31971C11.8497 2.40829 13.2036 2.88719 14.325 3.66496Z" />
    <path d="M17.911 3.90132C18.3839 4.51214 18.778 5.18208 19.113 5.89143L10.0097 12.6105L6.18705 10.2066V7.32983L9.98995 9.71402L17.911 3.90132Z" />
</svg>
