<svg width="20" height="20" viewBox="0 0 20 20" fill="currentColor" xmlns="http://www.w3.org/2000/svg">
    <path fill-rule="evenodd" clip-rule="evenodd" d="M2.32558 2.35885C1.98602 2.09189 1.33666 1.79273 0.687554 2.18823C0.110648 2.53974 0 3.17905 0 3.57628V16.4234C0 16.8205 0.110596 17.4598 0.687227 17.8114C1.33662 18.2074 1.98651 17.9078 2.32625 17.6403L9 12.3868V16.4234C9 16.8205 9.1106 17.4598 9.68723 17.8114C10.3366 18.2074 10.9865 17.9078 11.3263 17.6403L19.3272 11.3421C19.7367 11.0197 20 10.5393 20 9.99982C20 9.4603 19.7366 8.97992 19.3272 8.65757L11.3256 2.35885C10.986 2.09189 10.3367 1.79273 9.68755 2.18823C9.11065 2.53974 9 3.17905 9 3.57628V7.61285L2.32558 2.35885ZM8.79885 9.99982L2 4.64788V15.3518L8.79885 9.99982ZM11 15.3518L17.7988 9.99982L11 4.64788V15.3518Z" />
</svg>
