<svg width="20" height="20" viewBox="0 0 20 20" fill="currentColor" xmlns="http://www.w3.org/2000/svg">
    <path fill-rule="evenodd" clip-rule="evenodd" d="M3 2C1.34315 2 0 3.34315 0 5V5.99932C0 5.99934 0 5.99929 0 5.99932V15C0 16.6569 1.34315 18 3 18H17C18.6569 18 20 16.6569 20 15V6.01293C20.0001 6.00388 20.0001 5.99482 20 5.98576V5C20 3.34315 18.6569 2 17 2H3ZM18 5.511V5C18 4.44772 17.5523 4 17 4H3C2.44772 4 2 4.44772 2 5V5.51093L10 11.7332L18 5.511ZM2 8.04465V15C2 15.5523 2.44772 16 3 16H17C17.5523 16 18 15.5523 18 15V8.04472L11.2279 13.3119C10.5057 13.8736 9.49439 13.8736 8.77217 13.3119L2 8.04465Z" />
</svg>
