<svg width="20" height="20" viewBox="0 0 20 20" fill="currentColor" xmlns="http://www.w3.org/2000/svg">
    <path fill-rule="evenodd" clip-rule="evenodd" d="M6 3C3.6392 3 2 4.86281 2 7.39046C2 9.75157 3.71866 12.1503 5.80068 14.0622C6.81489 14.9936 7.85892 15.7571 8.70069 16.283C9.12228 16.5464 9.4811 16.7426 9.7502 16.869C9.85397 16.9177 9.9368 16.9524 9.9992 16.9758C10.0616 16.9524 10.1445 16.9177 10.2483 16.869C10.5174 16.7426 10.8763 16.5463 11.298 16.2829C12.1399 15.757 13.1842 14.9936 14.1986 14.0622C16.281 12.1502 18 9.75149 18 7.39046C18 4.86281 16.3608 3 14 3C12.6723 3 11.965 3.61741 11.0985 4.3738C10.9522 4.50151 10.8014 4.63318 10.6422 4.76651C10.2707 5.07783 9.72933 5.07783 9.35777 4.76651C9.19864 4.63318 9.04779 4.50151 8.90149 4.3738C8.03499 3.61741 7.32769 3 6 3ZM9.89789 17.0089C9.89792 17.0089 9.89942 17.0085 9.90228 17.0079C9.89928 17.0087 9.89785 17.0089 9.89789 17.0089ZM10.0961 17.0079C10.0989 17.0085 10.1004 17.0089 10.1005 17.0089C10.1006 17.009 10.0991 17.0087 10.0961 17.0079ZM0 7.39046C0 3.97374 2.3308 1 6 1C7.90945 1 9.14294 1.92184 10 2.66827C10.8571 1.92184 12.0906 1 14 1C17.6692 1 20 3.97374 20 7.39046C20 10.639 17.719 13.5451 15.5512 15.5354C14.4405 16.5552 13.2971 17.3923 12.3576 17.9792C11.8885 18.2722 11.4582 18.5104 11.0983 18.6793C10.9191 18.7635 10.7443 18.8366 10.5824 18.8908C10.4435 18.9373 10.2284 19 9.99918 19C9.76996 19 9.55487 18.9373 9.41593 18.8908C9.25405 18.8366 9.07928 18.7635 8.90011 18.6793C8.54024 18.5103 8.10999 18.2722 7.64099 17.9792C6.70158 17.3923 5.55837 16.5551 4.44789 15.5353C2.28052 13.545 0 10.6389 0 7.39046Z" />
</svg>
