<svg width="20" height="20" viewBox="0 0 20 20" fill="currentColor" xmlns="http://www.w3.org/2000/svg">
    <path fill-rule="evenodd" clip-rule="evenodd" d="M10 14.0958C10.167 14.0958 10.333 14.1378 10.484 14.2208L13.935 16.1278L13.263 12.0108C13.212 11.6978 13.313 11.3788 13.534 11.1518L16.425 8.18776L12.476 7.58376C12.146 7.53376 11.863 7.32276 11.721 7.02076L10 3.35376L8.27903 7.02076C8.13703 7.32276 7.85403 7.53376 7.52403 7.58376L3.57503 8.18776L6.46603 11.1518C6.68703 11.3788 6.78803 11.6978 6.73703 12.0108L6.06503 16.1278L9.51603 14.2208C9.66703 14.1378 9.83303 14.0958 10 14.0958ZM15.253 18.9998C15.087 18.9998 14.921 18.9588 14.77 18.8748L10 16.2388L5.23003 18.8748C4.89603 19.0608 4.48403 19.0378 4.17003 18.8178C3.85703 18.5968 3.69803 18.2168 3.76003 17.8388L4.68203 12.1868L0.784034 8.19176C0.522034 7.92276 0.433034 7.53176 0.552034 7.17576C0.671034 6.82076 0.979034 6.56176 1.34903 6.50476L6.69503 5.68776L9.09503 0.574756C9.25903 0.223756 9.61203 -0.000244141 10 -0.000244141C10.388 -0.000244141 10.741 0.223756 10.905 0.574756L13.305 5.68776L18.651 6.50476C19.021 6.56176 19.329 6.82076 19.448 7.17576C19.567 7.53176 19.478 7.92276 19.216 8.19176L15.318 12.1868L16.24 17.8388C16.302 18.2168 16.143 18.5968 15.83 18.8178C15.657 18.9388 15.456 18.9998 15.253 18.9998Z" />
</svg>
