<svg width="20" height="20" viewBox="0 0 20 20" fill="currentColor" xmlns="http://www.w3.org/2000/svg">
    <path d="M5 3C5.55228 3 6 3.44772 6 4V5H18C18.5523 5 19 5.44772 19 6C19 6.55228 18.5523 7 18 7H6V8C6 8.55228 5.55228 9 5 9C4.44772 9 4 8.55228 4 8V7H2C1.44772 7 1 6.55228 1 6C1 5.44772 1.44772 5 2 5H4V4C4 3.44772 4.44772 3 5 3Z" />
    <path d="M2 13C1.44772 13 1 13.4477 1 14C1 14.5523 1.44772 15 2 15H14V16C14 16.5523 14.4477 17 15 17C15.5523 17 16 16.5523 16 16V15H18C18.5523 15 19 14.5523 19 14C19 13.4477 18.5523 13 18 13H16V12C16 11.4477 15.5523 11 15 11C14.4477 11 14 11.4477 14 12V13H2Z" />
</svg>
