<svg width="20" height="20" viewBox="0 0 20 20" fill="currentColor" xmlns="http://www.w3.org/2000/svg">
    <path fill-rule="evenodd" clip-rule="evenodd" d="M4 3.5C4 4.0368 4.12085 4.54537 4.33682 5H3C1.89543 5 1 5.89543 1 7V10C1 10.7403 1.4022 11.3866 2 11.7324V17C2 18.6569 3.34315 20 5 20H15C16.6569 20 18 18.6569 18 17V11.7324C18.5978 11.3866 19 10.7403 19 10V7C19 5.89543 18.1046 5 17 5H15.6632C15.8792 4.54537 16 4.0368 16 3.5C16 1.567 14.433 0 12.5 0C11.5207 0 10.6353 0.402235 10 1.05051C9.36474 0.402235 8.47935 0 7.5 0C5.567 0 4 1.567 4 3.5ZM11 3.5C11 2.67157 11.6716 2 12.5 2C13.3284 2 14 2.67157 14 3.5C14 4.32843 13.3284 5 12.5 5H11L11 3.5ZM9 7H3V10H9V7ZM9 12H4V17C4 17.5523 4.44772 18 5 18H9V12ZM11 18V12H16V17C16 17.5523 15.5523 18 15 18H11ZM11 10V7H17V10H11ZM9 5H7.5C6.67157 5 6 4.32843 6 3.5C6 2.67157 6.67157 2 7.5 2C8.32843 2 9 2.67157 9 3.5L9 5Z" />
</svg>
