<svg width="20" height="20" viewBox="0 0 20 20" fill="none" xmlns="http://www.w3.org/2000/svg">
    <path fill-rule="evenodd" clip-rule="evenodd" d="M10 20C15.5228 20 20 15.5228 20 10C20 4.47715 15.5228 0 10 0C4.47715 0 0 4.47715 0 10C0 15.5228 4.47715 20 10 20Z" fill="#F2F2F2"/>
    <path fill-rule="evenodd" clip-rule="evenodd" d="M11.7187 4.96723C11.5552 4.79311 11.3458 4.70605 11.0869 4.70605C10.8563 4.70605 10.6575 4.79782 10.4893 4.98488C10.3222 5.16958 10.2375 5.38723 10.2375 5.63547C10.2375 5.87194 10.3222 6.08135 10.4893 6.26488C10.6575 6.44841 10.8563 6.539 11.0869 6.539C11.3363 6.539 11.5446 6.44253 11.7116 6.25076C11.8799 6.059 11.9634 5.83311 11.9634 5.57547C11.9634 5.3437 11.8822 5.14135 11.7187 4.96723ZM11.1116 14.3413C10.9516 14.3661 10.8281 14.3766 10.7434 14.3766C10.4858 14.3766 10.2999 14.3296 10.1846 14.2331C10.0705 14.139 10.0128 13.9625 10.0128 13.7025C10.0128 13.5943 10.0281 13.4543 10.0634 13.2849C10.0963 13.1155 10.1352 12.9425 10.1799 12.7649L10.9034 9.87547C10.9387 9.73547 10.9658 9.59547 10.9834 9.45429C11.0022 9.31311 11.0105 9.20253 11.0105 9.12135C11.0105 8.82135 10.9269 8.5837 10.7611 8.40723C10.5928 8.23076 10.3222 8.14253 9.95164 8.14253C9.78811 8.14253 9.56811 8.18017 9.28694 8.25782C9.00576 8.33429 8.68929 8.45194 8.33635 8.61076L8.23517 9.04605C8.31988 9.02253 8.44576 8.99547 8.61047 8.9637C8.77517 8.93194 8.90811 8.91547 9.00694 8.91547C9.26458 8.91547 9.43635 8.959 9.51988 9.04253C9.60223 9.12605 9.64458 9.29547 9.64458 9.54841C9.64458 9.67547 9.62811 9.82958 9.59282 10.0108C9.55988 10.1919 9.52458 10.3625 9.48811 10.5213L8.77047 13.4108C8.73047 13.5825 8.70105 13.7261 8.68341 13.839C8.66458 13.9508 8.65517 14.0613 8.65517 14.1649C8.65517 14.4402 8.74694 14.6731 8.92694 14.8613C9.10811 15.0496 9.37988 15.1437 9.74223 15.1437C9.91988 15.1437 10.1316 15.1119 10.3799 15.0449C10.6293 14.9802 10.9622 14.8637 11.3787 14.6955L11.4811 14.2613C11.3952 14.2931 11.2716 14.3202 11.1116 14.3413Z" fill="#75787B"/>
</svg>
