<svg width="20" height="20" viewBox="0 0 20 20" fill="none" xmlns="http://www.w3.org/2000/svg">
    <path d="M0 10C0 4.47715 4.47715 0 10 0C15.5228 0 20 4.47715 20 10C20 15.5228 15.5228 20 10 20C4.47715 20 0 15.5228 0 10Z" fill="#FF4337"/>
    <path d="M9.09122 4.11768H10.8766L10.6193 12.4816H9.36466L9.09122 4.11768ZM10.008 15.972C9.66491 15.972 9.39683 15.8808 9.20382 15.6986C9.02152 15.5055 8.93038 15.2482 8.93038 14.9265C8.93038 14.5834 9.02152 14.3206 9.20382 14.1384C9.39683 13.9561 9.66491 13.8649 10.008 13.8649C10.3405 13.8649 10.5978 13.9614 10.7801 14.1544C10.9731 14.3367 11.0696 14.5887 11.0696 14.9104C11.0696 15.2428 10.9731 15.5055 10.7801 15.6986C10.5978 15.8808 10.3405 15.972 10.008 15.972Z" fill="white"/>
</svg>
