<svg width="20" height="20" viewBox="0 0 20 20" fill="none" xmlns="http://www.w3.org/2000/svg">
    <path d="M5 8.5C4.21081 8.5 2.99946 8.5 2.11654 8.5C1.52053 8.5 1.05756 9.01807 1.12338 9.61043L1.90116 16.6104C1.95743 17.1169 2.38549 17.5 2.89504 17.5L6 17.5M5 8.5C5.39052 12.0147 6 17.5 6 17.5M5 8.5C5.95419 8.5 9.18458 6.67904 10.7817 1.73396C10.9203 1.30484 11.3187 0.978614 11.7594 1.07442C13.9587 1.55259 13.3438 4.22809 12.682 5.97249C12.4136 6.67996 12.9175 7.5 13.6742 7.5H16.4384C17.7396 7.5 18.6943 8.72278 18.3787 9.98507L17.0681 15.2276C16.7342 16.5631 15.5343 17.5 14.1577 17.5L6 17.5" stroke="black" stroke-linecap="round" stroke-linejoin="round"/>
</svg>
