<svg width="20" height="20" viewBox="0 0 20 20" fill="currentColor" xmlns="http://www.w3.org/2000/svg">
    <path fill-rule="evenodd" clip-rule="evenodd" d="M10 2C5.58172 2 2 5.58172 2 10C2 14.4183 5.58172 18 10 18C11.1053 18 12.1559 17.7764 13.1108 17.3729L13.8892 19.2152C12.6924 19.7209 11.3775 20 10 20C4.47715 20 0 15.5228 0 10C0 4.47715 4.47715 0 10 0C15.5228 0 20 4.47715 20 10C20 10.7623 19.9145 11.5059 19.7522 12.2213L17.8018 11.7787C17.9314 11.2076 18 10.6124 18 10C18 5.58172 14.4183 2 10 2Z" />
</svg>
