<svg width="20" height="20" viewBox="0 0 20 20" fill="currentColor" xmlns="http://www.w3.org/2000/svg">
    <path d="M10 0C8.89543 0 8 0.89543 8 2V4.375C8 4.92728 8.44771 5.375 9 5.375C9.55229 5.375 10 4.92728 10 4.375V2H18V18H10V15.625C10 15.0727 9.55229 14.625 9 14.625C8.44771 14.625 8 15.0727 8 15.625V18C8 19.1046 8.89543 20 10 20H18C19.1046 20 20 19.1046 20 18V2C20 0.89543 19.1046 0 18 0H10Z" />
    <path d="M4.21913 4.37534C4.56414 3.94408 5.19343 3.87416 5.62469 4.21917C6.05596 4.56418 6.12588 5.19347 5.78087 5.62473L3.08062 9.00004H13C13.5523 9.00004 14 9.44775 14 10C14 10.5523 13.5523 11 13 11H3.08062L5.78087 14.3753C6.12588 14.8066 6.05596 15.4359 5.62469 15.7809C5.19343 16.1259 4.56414 16.056 4.21913 15.6247L0.219131 10.6247C-0.0730438 10.2595 -0.0730438 9.74056 0.219131 9.37534L4.21913 4.37534Z" />
</svg>
