<svg width="20" height="20" viewBox="0 0 20 20" fill="currentColor" xmlns="http://www.w3.org/2000/svg">
    <path d="M0 4C0 3.44772 0.447715 3 1 3H19C19.5523 3 20 3.44772 20 4C20 4.55228 19.5523 5 19 5H1C0.447715 5 0 4.55228 0 4Z" />
    <path d="M0 10C0 9.44772 0.447715 9 1 9H19C19.5523 9 20 9.44772 20 10C20 10.5523 19.5523 11 19 11H1C0.447715 11 0 10.5523 0 10Z" />
    <path d="M1 15C0.447715 15 0 15.4477 0 16C0 16.5523 0.447715 17 1 17H19C19.5523 17 20 16.5523 20 16C20 15.4477 19.5523 15 19 15H1Z" />
</svg>
