<svg width="20" height="20" viewBox="0 0 20 20" fill="fillColor" xmlns="http://www.w3.org/2000/svg">
    <path fill-rule="evenodd" clip-rule="evenodd" d="M3.70711 2.29289C3.31658 1.90237 2.68342 1.90237 2.29289 2.29289C1.90237 2.68342 1.90237 3.31658 2.29289 3.70711L4.02989 5.44411C2.29984 6.809 0.944603 8.42499 0.204872 9.394C-0.0681279 9.752 -0.0681279 10.248 0.204872 10.606C1.67287 12.529 5.56487 17 9.99987 17C11.5199 17 12.9761 16.4748 14.2928 15.707L16.2929 17.7071C16.6834 18.0976 17.3166 18.0976 17.7071 17.7071C18.0976 17.3166 18.0976 16.6834 17.7071 16.2929L15.97 14.5558C17.7 13.1909 19.0552 11.575 19.7949 10.606C20.0689 10.248 20.0689 9.752 19.7949 9.394C18.3269 7.471 14.4349 3 9.99987 3C8.47993 3 7.02376 3.52514 5.70709 4.29287L3.70711 2.29289ZM5.45585 6.87007C4.1034 7.90627 2.97476 9.15246 2.27687 10C3.67587 11.699 6.80587 15 9.99987 15C10.9615 15 11.9174 14.7008 12.8219 14.2361L5.45585 6.87007ZM14.544 13.1298L7.178 5.76379C8.0825 5.29919 9.03829 5 9.99987 5C13.1939 5 16.3239 8.301 17.7229 10C17.025 10.8475 15.8964 12.0936 14.544 13.1298Z" />
</svg>
