<svg width="20" height="20" viewBox="0 0 20 20" fill="fillColor" xmlns="http://www.w3.org/2000/svg">
    <path fill-rule="evenodd" clip-rule="evenodd" d="M5.99997 10C5.99997 7.791 7.79097 6 9.99997 6C12.209 6 14 7.791 14 10C14 12.209 12.209 14 9.99997 14C7.79097 14 5.99997 12.209 5.99997 10ZM12 10C12 8.897 11.103 8 9.99997 8C8.89697 8 7.99997 8.897 7.99997 10C7.99997 11.103 8.89697 12 9.99997 12C11.103 12 12 11.103 12 10Z" />
    <path fill-rule="evenodd" clip-rule="evenodd" d="M0.204872 10.606C1.67287 12.529 5.56487 17 9.99987 17C14.4349 17 18.3269 12.529 19.7949 10.606C20.0689 10.248 20.0689 9.752 19.7949 9.394C18.3269 7.471 14.4349 3 9.99987 3C5.56487 3 1.67287 7.471 0.204872 9.394C-0.0681279 9.752 -0.0681279 10.248 0.204872 10.606ZM9.99987 15C6.80587 15 3.67587 11.699 2.27687 10C3.67587 8.301 6.80587 5 9.99987 5C13.1939 5 16.3239 8.301 17.7229 10C16.3239 11.699 13.1939 15 9.99987 15Z" />
</svg>
