<svg width="20" height="20" viewBox="0 0 20 20" fill="currentColor" xmlns="http://www.w3.org/2000/svg">
    <path d="M11 4C11 4.55228 10.5523 5 10 5C9.44772 5 9 4.55228 9 4C9 3.44772 9.44772 3 10 3C10.5523 3 11 3.44772 11 4Z" />
    <path fill-rule="evenodd" clip-rule="evenodd" d="M3 3C3 1.34315 4.34315 0 6 0H14C15.6569 0 17 1.34315 17 3V17C17 18.6569 15.6569 20 14 20H6C4.34315 20 3 18.6569 3 17V3ZM6 2C5.44772 2 5 2.44772 5 3V14H15V3C15 2.44772 14.5523 2 14 2H6ZM15 16H5V17C5 17.5523 5.44772 18 6 18H14C14.5523 18 15 17.5523 15 17V16Z" />
</svg>
