<svg width="20" height="20" viewBox="0 0 20 20" fill="currentColor" xmlns="http://www.w3.org/2000/svg">
    <path fill-rule="evenodd" clip-rule="evenodd" d="M6 5C6 7.206 7.794 9 10 9C12.206 9 14 7.206 14 5C14 2.794 12.206 1 10 1C7.794 1 6 2.794 6 5ZM8 5C8 3.897 8.897 3 10 3C11.103 3 12 3.897 12 5C12 6.103 11.103 7 10 7C8.897 7 8 6.103 8 5Z" />
    <path d="M16 18C16 18.553 16.448 19 17 19C17.552 19 18 18.553 18 18C18 13.589 14.411 10 10 10C5.589 10 2 13.589 2 18C2 18.553 2.448 19 3 19C3.552 19 4 18.553 4 18C4 14.691 6.691 12 10 12C13.309 12 16 14.691 16 18Z" />
</svg>
