<svg width="20" height="20" viewBox="0 0 20 20" fill="currentColor" xmlns="http://www.w3.org/2000/svg">
    <path d="M8.78636 11.2533C8.78636 11.3511 8.8 11.5689 8.82727 11.9067H10.5045C10.4773 11.5956 10.4636 11.3911 10.4636 11.2933C10.4636 11.0178 10.5409 10.7778 10.6955 10.5733C10.85 10.36 11.1545 10.08 11.6091 9.73333C12.1364 9.33333 12.5 8.97778 12.7 8.66667C12.9 8.35556 13 7.97778 13 7.53333C13 6.72444 12.7409 6.10222 12.2227 5.66667C11.7136 5.22222 10.9909 5 10.0545 5C9.5 5 8.95455 5.07556 8.41818 5.22667C7.89091 5.37778 7.41818 5.59111 7 5.86667L7.73636 7.34667C8.50909 6.91111 9.22273 6.69333 9.87727 6.69333C10.6682 6.69333 11.0636 6.98667 11.0636 7.57333C11.0636 7.77778 11 7.96444 10.8727 8.13333C10.7455 8.30222 10.4955 8.53333 10.1227 8.82667C9.61364 9.21778 9.26364 9.58667 9.07273 9.93333C8.88182 10.28 8.78636 10.72 8.78636 11.2533Z" />
    <path d="M8.82727 14.72C9.03636 14.9067 9.31818 15 9.67273 15C10.0364 15 10.3182 14.9067 10.5182 14.72C10.7182 14.5244 10.8182 14.2578 10.8182 13.92C10.8182 13.6 10.7136 13.3467 10.5045 13.16C10.3045 12.9644 10.0273 12.8667 9.67273 12.8667C9.30909 12.8667 9.02727 12.96 8.82727 13.1467C8.62727 13.3333 8.52727 13.5956 8.52727 13.9333C8.52727 14.2622 8.62727 14.5244 8.82727 14.72Z" />
    <path fill-rule="evenodd" clip-rule="evenodd" d="M0 10C0 4.47715 4.47715 0 10 0C15.5228 0 20 4.47715 20 10C20 15.5228 15.5228 20 10 20C4.47715 20 0 15.5228 0 10ZM10 2C5.58172 2 2 5.58172 2 10C2 14.4183 5.58172 18 10 18C14.4183 18 18 14.4183 18 10C18 5.58172 14.4183 2 10 2Z" />
</svg>
