<svg width="20" height="20" viewBox="0 0 20 20" fill="currentColor" xmlns="http://www.w3.org/2000/svg">
    <path d="M2.81593 1.29003C2.26365 1.29218 1.81768 1.74164 1.81983 2.29392C1.82198 2.8462 2.27144 3.29217 2.82372 3.29002L5.65964 3.27897C3.45779 4.70368 2.00001 7.18081 2.00001 10C2.00001 14.4183 5.58173 18 10 18C14.4183 18 18 14.4183 18 10C18 7.82058 17.1272 5.843 15.7142 4.40113C15.3277 4.00666 14.6946 4.00024 14.3001 4.38679C13.9056 4.77333 13.8992 5.40646 14.2858 5.80093C15.3472 6.88412 16 8.36483 16 10C16 13.3137 13.3137 16 10 16C6.6863 16 4.00001 13.3137 4.00001 10C4.00001 7.66703 5.3321 5.64326 7.27857 4.65093L7.00491 7.40096C6.95023 7.95053 7.35141 8.44038 7.90098 8.49507C8.45055 8.54976 8.9404 8.14858 8.99509 7.59901L9.51574 2.36684C9.54378 2.08511 9.45108 1.8047 9.26064 1.5952C9.0702 1.38569 8.79988 1.26673 8.51676 1.26783L2.81593 1.29003Z" />
</svg>
