<svg width="20" height="20" viewBox="0 0 20 20" fill="currentColor" xmlns="http://www.w3.org/2000/svg">
    <path fill-rule="evenodd" clip-rule="evenodd" d="M2.16213 8.108C2.16213 4.8302 4.82912 2.16213 8.108 2.16213C11.3869 2.16213 14.0539 4.8302 14.0539 8.108C14.0539 11.3858 11.3869 14.0539 8.108 14.0539C4.82912 14.0539 2.16213 11.3858 2.16213 8.108ZM19.683 18.1543L14.5457 13.0171C15.589 11.6528 16.216 9.95446 16.216 8.108C16.216 3.63671 12.5793 0 8.108 0C3.63671 0 0 3.63671 0 8.108C0 12.5793 3.63671 16.216 8.108 16.216C9.95446 16.216 11.6528 15.589 13.0171 14.5457L18.1543 19.683C18.3652 19.8938 18.6419 19.9997 18.9187 19.9997C19.1954 19.9997 19.4722 19.8938 19.683 19.683C20.1057 19.2603 20.1057 18.577 19.683 18.1543Z" />
</svg>
