<svg width="20" height="20" viewBox="0 0 20 20" fill="currentColor" xmlns="http://www.w3.org/2000/svg">
    <path fill-rule="evenodd" clip-rule="evenodd" d="M0.292921 0.292921C0.597281 -0.0114395 1.06225 -0.086894 1.44724 0.1056L19.4472 9.1056C19.786 9.27499 20 9.62126 20 10C20 10.3788 19.786 10.7251 19.4472 10.8945L1.44724 19.8945C1.06225 20.0869 0.597281 20.0115 0.292921 19.7071C-0.0114395 19.4028 -0.086894 18.9378 0.1056 18.5528L4.38199 10L0.1056 1.44724C-0.086894 1.06225 -0.0114395 0.597281 0.292921 0.292921ZM6.11806 11L3.2361 16.764L14.764 11H6.11806ZM14.764 9.00003H6.11806L3.2361 3.2361L14.764 9.00003Z" />
</svg>
