<svg width="20" height="20" viewBox="0 0 20 20" fill="currentColor" xmlns="http://www.w3.org/2000/svg">
    <g clip-path="url(#clip0)">
        <path d="M10.7071 0.292893C10.3166 -0.0976311 9.68342 -0.0976311 9.29289 0.292893L6.29289 3.29289C5.90237 3.68342 5.90237 4.31658 6.29289 4.70711C6.68342 5.09763 7.31658 5.09763 7.70711 4.70711L9 3.41421V15C9 15.5523 9.44772 16 10 16C10.5523 16 11 15.5523 11 15V3.41421L12.2929 4.70711C12.6834 5.09763 13.3166 5.09763 13.7071 4.70711C14.0976 4.31658 14.0976 3.68342 13.7071 3.29289L10.7071 0.292893Z" />
        <path d="M3 6C2.44772 6 2 6.44772 2 7V19C2 19.5523 2.44772 20 3 20H17C17.5523 20 18 19.5523 18 19V7C18 6.44772 17.5523 6 17 6H15.4444C14.8922 6 14.4444 6.44772 14.4444 7C14.4444 7.55228 14.8922 8 15.4444 8H16V18H4V8H4.55556C5.10784 8 5.55556 7.55228 5.55556 7C5.55556 6.44772 5.10784 6 4.55556 6H3Z" />
    </g>
    <defs>
        <clipPath id="clip0">
            <rect width="20" height="20" fill="white"/>
        </clipPath>
    </defs>
</svg>
