<svg width="20" height="20" viewBox="0 0 20 20" fill="currentColor" xmlns="http://www.w3.org/2000/svg">
    <path d="M18.7071 15.7071L15.7071 18.7071C15.3166 19.0976 14.6834 19.0976 14.2929 18.7071L11.2929 15.7071C10.9024 15.3166 10.9024 14.6834 11.2929 14.2929C11.6834 13.9024 12.3166 13.9024 12.7071 14.2929L14 15.5858V2C14 1.44772 14.4477 1 15 1C15.5523 1 16 1.44772 16 2V15.5858L17.2929 14.2929C17.6834 13.9024 18.3166 13.9024 18.7071 14.2929C19.0976 14.6834 19.0976 15.3166 18.7071 15.7071Z" />
    <path d="M5.70711 1.29289C5.31658 0.902369 4.68342 0.902369 4.29289 1.29289L1.29289 4.29289C0.902369 4.68342 0.902369 5.31658 1.29289 5.70711C1.68342 6.09763 2.31658 6.09763 2.70711 5.70711L4 4.41421V18C4 18.5523 4.44772 19 5 19C5.55228 19 6 18.5523 6 18V4.41421L7.29289 5.70711C7.68342 6.09763 8.31658 6.09763 8.70711 5.70711C9.09763 5.31658 9.09763 4.68342 8.70711 4.29289L5.70711 1.29289Z" />
</svg>
