<svg width="20" height="20" viewBox="0 0 20 20" fill="currentColor" xmlns="http://www.w3.org/2000/svg">
    <path d="M12 4C12 3.44772 12.4477 3 13 3H19C19.5523 3 20 3.44772 20 4C20 4.55228 19.5523 5 19 5H13C12.4477 5 12 4.55228 12 4Z" />
    <path d="M0 10C0 9.44772 0.447715 9 1 9H19C19.5523 9 20 9.44772 20 10C20 10.5523 19.5523 11 19 11H1C0.447715 11 0 10.5523 0 10Z" />
    <path d="M7 15C6.44772 15 6 15.4477 6 16C6 16.5523 6.44772 17 7 17H19C19.5523 17 20 16.5523 20 16C20 15.4477 19.5523 15 19 15H7Z" />
</svg>
