<svg width="20" height="20" viewBox="0 0 20 20" fill="currentColor" xmlns="http://www.w3.org/2000/svg">
    <path d="M0 5C0 4.44772 0.447715 4 1 4H19C19.5523 4 20 4.44772 20 5C20 5.55228 19.5523 6 19 6H1C0.447715 6 0 5.55228 0 5Z" />
    <path d="M0 10C0 9.44772 0.447715 9 1 9H14C14.5523 9 15 9.44772 15 10C15 10.5523 14.5523 11 14 11H1C0.447715 11 0 10.5523 0 10Z" />
    <path d="M1 14C0.447715 14 0 14.4477 0 15C0 15.5523 0.447715 16 1 16H9C9.55228 16 10 15.5523 10 15C10 14.4477 9.55228 14 9 14H1Z" />
</svg>
