<svg width="18" height="6" viewBox="0 0 18 6" fill="none" xmlns="http://www.w3.org/2000/svg">
    <path d="M2.6084 5.52539C1.89746 5.52539 1.34147 5.32487 0.94043 4.92383C0.548503 4.52279 0.352539 3.9668 0.352539 3.25586C0.352539 2.53581 0.548503 1.97982 0.94043 1.58789C1.34147 1.18685 1.89746 0.986328 2.6084 0.986328C3.32845 0.986328 3.88444 1.18685 4.27637 1.58789C4.67741 1.97982 4.87793 2.53581 4.87793 3.25586C4.87793 3.9668 4.67741 4.52279 4.27637 4.92383C3.88444 5.32487 3.32845 5.52539 2.6084 5.52539ZM8.99316 5.52539C8.28223 5.52539 7.72624 5.32487 7.3252 4.92383C6.93327 4.52279 6.7373 3.9668 6.7373 3.25586C6.7373 2.53581 6.93327 1.97982 7.3252 1.58789C7.72624 1.18685 8.28223 0.986328 8.99316 0.986328C9.71322 0.986328 10.2692 1.18685 10.6611 1.58789C11.0622 1.97982 11.2627 2.53581 11.2627 3.25586C11.2627 3.9668 11.0622 4.52279 10.6611 4.92383C10.2692 5.32487 9.71322 5.52539 8.99316 5.52539ZM15.3779 5.52539C14.667 5.52539 14.111 5.32487 13.71 4.92383C13.318 4.52279 13.1221 3.9668 13.1221 3.25586C13.1221 2.53581 13.318 1.97982 13.71 1.58789C14.111 1.18685 14.667 0.986328 15.3779 0.986328C16.098 0.986328 16.654 1.18685 17.0459 1.58789C17.4469 1.97982 17.6475 2.53581 17.6475 3.25586C17.6475 3.9668 17.4469 4.52279 17.0459 4.92383C16.654 5.32487 16.098 5.52539 15.3779 5.52539Z" fill="black"/>
</svg>
